<?xml version="1.0" encoding="UTF-8" standalone="no"?>
<svg
   xmlns:dc="http://purl.org/dc/elements/1.1/"
   xmlns:cc="http://creativecommons.org/ns#"
   xmlns:rdf="http://www.w3.org/1999/02/22-rdf-syntax-ns#"
   xmlns:svg="http://www.w3.org/2000/svg"
   xmlns="http://www.w3.org/2000/svg"
   id="svg8"
   version="1.1"
   viewBox="0 0 76.390551 22.793982"
   height="86.150482"
   width="288.72018">
  <defs
     id="defs2" />
  <metadata
     id="metadata5">
    <rdf:RDF>
      <cc:Work
         rdf:about="">
        <dc:format>image/svg+xml</dc:format>
        <dc:type
           rdf:resource="http://purl.org/dc/dcmitype/StillImage" />
        <dc:title></dc:title>
      </cc:Work>
    </rdf:RDF>
  </metadata>
  <g
     transform="translate(-8.7186167,-218.54661)"
     id="layer1">
    <g
       id="g4640">
      <g
         id="g4548"
         transform="matrix(1,0,0,1.0313401,0,-6.9413699)"
         style="stroke-width:0.98468888">
        <path
           style="fill:none;stroke:#000000;stroke-width:0.26053226px;stroke-linecap:butt;stroke-linejoin:miter;stroke-opacity:1"
           d="m 20.271994,239.00407 c 1.500121,0.20591 3.019904,0.28536 4.533859,0.25603 6.168281,-0.11901 12.169298,-1.87025 18.068302,-3.65779 6.087012,-1.84624 12.172334,-3.87381 18.504607,-4.71373 0,0 2e-6,0 2e-6,0 1.545593,-0.20497 3.104917,-0.33389 4.664188,-0.36116"
           id="path4520" />
        <path
           style="opacity:1;fill:#87cdde;fill-opacity:1;stroke:none;stroke-width:0.26053226px;stroke-linecap:butt;stroke-linejoin:miter;stroke-opacity:1"
           d="m 21.327354,227.11728 c -0.459101,-0.0828 -0.889643,-0.18987 -1.285764,-0.32543 -1.37972,-0.38092 -2.849813,-1.24518 -4.278793,-2.35403 -0.356315,1.98166 -0.432424,4.11258 -0.112956,6.27782 -2.03779,0.9424 -4.395404,1.55726 -6.9114186,1.8223 2.3355576,1.88391 4.9869236,3.38976 7.8268536,4.28649 0.853692,0.27257 1.72669,0.49113 2.612637,0.66016 0.705852,-3.45795 1.422321,-6.91373 2.149441,-10.36731 z"
           id="path3703" />
        <path
           style="opacity:1;fill:#87cdde;fill-opacity:1;stroke:none;stroke-width:0.26053226px;stroke-linecap:butt;stroke-linejoin:miter;stroke-opacity:1"
           d="m 67.742761,218.63591 c 1.396158,0.0363 2.819957,0.13339 4.267485,0.29817 4.544725,0.5525 8.977815,1.89006 13.098916,3.97982 -3.284187,0.32517 -6.31727,1.09381 -9.040095,2.19158 1.736156,2.29753 3.047587,4.72193 3.914027,7.15253 -2.886914,-1.46524 -6.043721,-2.41466 -9.278026,-2.81626 -1.081703,-0.13304 -2.166172,-0.20817 -3.249185,-0.23298 0.08696,-3.52456 0.182568,-7.04885 0.286878,-10.57286 z"
           id="path3705" />
        <path
           style="opacity:1;fill:#afdde9;fill-opacity:1;stroke:none;stroke-width:0.24617222;stroke-linecap:round;stroke-linejoin:round;stroke-miterlimit:4;stroke-dasharray:none;stroke-dashoffset:0;stroke-opacity:1"
           d="m 18.310255,229.07743 c 0.278913,0.11065 0.55818,0.20918 0.837294,0.2946 1.593668,0.5517 3.496263,0.76269 5.519515,0.75787 4.445962,0.0717 9.571076,-1.52439 15.41852,-3.19247 5.892566,-1.82553 12.462711,-3.97153 19.973127,-5.07487 3.642573,-0.52521 7.5475,-0.66223 11.614554,-0.21553 0.329001,0.0383 0.657435,0.0809 0.985209,0.12796 l -1.600931,10.4693 c -0.229377,-0.033 -0.459216,-0.0629 -0.689423,-0.0899 -2.881434,-0.34079 -5.840485,-0.21341 -8.77693,0.18663 -6.13582,0.83289 -12.133005,2.85369 -18.254245,4.69925 l -3e-6,0 c -5.908876,1.80321 -12.064156,3.55907 -18.509017,3.67177 -3.076039,0.0476 -6.190989,-0.34666 -9.156581,-1.30779 -0.516057,-0.16895 -1.025116,-0.35451 -1.526667,-0.5557 z"
           id="rect10" />
        <path
           style="fill:#5fbcd3;stroke:none;stroke-width:0.26053226px;stroke-linecap:butt;stroke-linejoin:miter;stroke-opacity:1"
           d="m 21.327352,227.11729 c -0.584494,0.50175 -1.208556,0.96487 -1.874538,1.37376 -0.318639,0.20481 -0.654604,0.39415 -1.006243,0.56801 0.242103,0.0898 0.484196,0.17028 0.725937,0.24094 0.508359,0.16918 1.047522,0.30372 1.611493,0.40792 0.180452,-0.86368 0.361568,-1.72723 0.543351,-2.59063 z"
           id="path4512" />
        <path
           style="fill:#5fbcd3;stroke:none;stroke-width:0.26053226px;stroke-linecap:butt;stroke-linejoin:miter;stroke-opacity:1"
           d="m 67.74276,218.63591 c 1.38451,0.68453 2.733108,1.42798 4.027499,2.23024 0.47091,0.29255 0.930579,0.59395 1.378787,0.90357 -0.48678,-0.0793 -0.975249,-0.14893 -1.465095,-0.20872 -1.357949,-0.15701 -2.698543,-0.24862 -4.017792,-0.28207 0.02499,-0.88102 0.05052,-1.76203 0.0766,-2.64302 z"
           id="path4514" />
        <path
           style="opacity:1;fill:#5fbcd3;fill-opacity:0;stroke:none;stroke-width:0.24617222;stroke-linecap:round;stroke-linejoin:round;stroke-miterlimit:4;stroke-dasharray:none;stroke-dashoffset:0;stroke-opacity:1"
           d="m 8.5134186,246.96523 c -0.2193185,0.44079 -1.9701384,0.0909 -3.7911,-0.99125 -1.8191205,-1.08103 -2.8711221,-2.39317 -2.5659485,-2.78169 0.3065283,-0.39025 1.8320439,0.25975 3.5297617,1.26953 1.6954952,1.00846 3.0456313,2.06457 2.8272868,2.50341 z"
           id="path4525" />
      </g>
      <g
         aria-label="Shaheena Qureshi"
         transform="matrix(1,0,0,1.0313401,0,-9.1243732)"
         style="font-style:normal;font-variant:normal;font-weight:bold;font-stretch:normal;font-size:4.93888903px;line-height:1.25;font-family:Didot;-inkscape-font-specification:'Didot, Bold';font-variant-ligatures:normal;font-variant-caps:normal;font-variant-numeric:normal;font-feature-settings:normal;text-align:start;letter-spacing:0px;word-spacing:0px;writing-mode:lr-tb;text-anchor:start;fill:#483745;fill-opacity:1;stroke:none;stroke-width:0.26053226"
         id="text4518">
        <path
           d="m 21.031793,237.97784 c -0.04867,0.36242 -0.09725,0.72484 -0.145732,1.08728 0.02496,0.003 0.04992,0.006 0.07489,0.009 0.02158,-0.0439 0.04249,-0.0712 0.06283,-0.082 0.02077,-0.0142 0.05288,-0.0187 0.09643,-0.0137 0.03114,0.004 0.07652,0.0187 0.136586,0.0452 0.0631,0.0267 0.134231,0.0558 0.213119,0.0869 0.08243,0.0281 0.169904,0.0563 0.262374,0.0845 0.09564,0.0284 0.192569,0.0465 0.290437,0.0542 0.195764,0.0153 0.375504,-0.004 0.537216,-0.0574 0.165131,-0.0563 0.306795,-0.13692 0.424597,-0.24063 0.120974,-0.10362 0.214683,-0.22717 0.281784,-0.36998 0.06711,-0.14284 0.102567,-0.29505 0.107979,-0.45643 0.0055,-0.16461 -0.01859,-0.30391 -0.07098,-0.41769 -0.04946,-0.11376 -0.116612,-0.21182 -0.201105,-0.29447 -0.08452,-0.0827 -0.181947,-0.15149 -0.29239,-0.20686 -0.107355,-0.0585 -0.218417,-0.11298 -0.333278,-0.16357 0.07915,0.0356 -0.408607,-0.18374 -0.329455,-0.14812 -0.104835,-0.0481 -0.196876,-0.10248 -0.276153,-0.16278 -0.07895,-0.0636 -0.140528,-0.13589 -0.185006,-0.21654 -0.04171,-0.0804 -0.0554,-0.17789 -0.04201,-0.29245 0.0088,-0.0753 0.03252,-0.1473 0.07071,-0.21624 0.03819,-0.069 0.08896,-0.13006 0.152071,-0.18355 0.06312,-0.0535 0.136742,-0.0946 0.221038,-0.12368 0.08701,-0.0289 0.184049,-0.0391 0.291934,-0.031 0.132137,0.0101 0.239488,0.0451 0.32277,0.10603 0.08321,0.0611 0.151131,0.1391 0.203622,0.23422 0.05268,0.0918 0.09446,0.19445 0.125015,0.30801 0.03336,0.1137 0.06445,0.22887 0.09316,0.34551 0.01849,7.8e-4 0.03699,0.002 0.0555,0.002 0.014,-0.31274 0.02807,-0.62547 0.0422,-0.9382 -0.02185,-8.7e-4 -0.04368,-0.002 -0.06551,-0.003 -0.01555,0.0389 -0.0306,0.0663 -0.04511,0.0821 -0.01161,0.0127 -0.03661,0.0182 -0.07493,0.0164 -0.03285,-0.002 -0.06927,-0.0132 -0.109059,-0.035 -0.03708,-0.0217 -0.08081,-0.0438 -0.131168,-0.0665 -0.05016,-0.026 -0.108303,-0.0509 -0.174425,-0.0749 -0.06613,-0.0241 -0.143442,-0.0392 -0.23218,-0.0458 -0.139828,-0.0101 -0.272302,0.009 -0.399108,0.0563 -0.123774,0.0449 -0.234215,0.11003 -0.331793,0.19578 -0.09716,0.0825 -0.17829,0.18112 -0.242972,0.29633 -0.06468,0.11521 -0.106279,0.23799 -0.123522,0.36861 -0.02329,0.17646 -0.01898,0.32609 0.01425,0.44944 0.03605,0.12358 0.09094,0.2309 0.165027,0.32172 0.07445,0.0875 0.163063,0.16286 0.265764,0.22561 0.103034,0.0595 0.210425,0.11366 0.322025,0.16243 0.07055,0.0287 0.258419,0.10499 0.328967,0.1337 0.107397,0.0436 0.202931,0.094 0.286652,0.15164 0.0837,0.0576 0.149286,0.12692 0.196536,0.20839 0.05025,0.0816 0.07276,0.18328 0.06662,0.30503 -0.0033,0.0658 -0.01949,0.14265 -0.04887,0.23028 -0.02921,0.0844 -0.0771,0.16458 -0.14412,0.24027 -0.06389,0.0758 -0.151136,0.13877 -0.261881,0.18809 -0.110463,0.046 -0.249851,0.0632 -0.416749,0.0504 -0.04712,-0.004 -0.09928,-0.008 -0.155791,-0.0125 -0.0532,-0.007 -0.110473,-0.0223 -0.171603,-0.0446 -0.0577,-0.025 -0.118983,-0.0605 -0.183502,-0.1065 -0.0614,-0.0457 -0.12367,-0.1099 -0.186203,-0.19269 -0.05748,-0.0723 -0.104495,-0.14875 -0.141253,-0.22909 -0.03329,-0.0833 -0.0604,-0.16267 -0.08156,-0.23808 -0.01771,-0.0783 -0.02993,-0.14947 -0.03687,-0.21329 -0.0065,-0.067 -0.0101,-0.12067 -0.0109,-0.16055 -0.02232,-0.003 -0.04464,-0.005 -0.06694,-0.008 z"
           style="font-style:normal;font-variant:normal;font-weight:bold;font-stretch:normal;font-size:4.93888903px;font-family:Didot;-inkscape-font-specification:'Didot, Bold';font-variant-ligatures:normal;font-variant-caps:normal;font-variant-numeric:normal;font-feature-settings:normal;text-align:start;writing-mode:lr-tb;text-anchor:start;fill:#483745;stroke-width:0.26053226"
           id="path4578" />
        <path
           d="m 23.830092,239.19288 c -3.44e-4,0.023 -6.87e-4,0.0461 -0.001,0.0691 0.314537,0.005 0.629508,0.004 0.944624,-0.001 0.08474,-0.001 0.169483,-0.003 0.254232,-0.005 -6.59e-4,-0.023 -0.0013,-0.0461 -0.002,-0.0691 -0.08444,0.002 -0.168873,0.004 -0.253302,0.005 -0.01619,3.1e-4 -0.03237,6e-4 -0.04856,8.8e-4 -0.0065,-0.35227 -0.01292,-0.70455 -0.01928,-1.05682 -0.0027,-0.15139 0.01012,-0.28343 0.03794,-0.39577 0.0024,-0.01 0.0049,-0.0192 0.0074,-0.0286 0,-1e-5 0,-1e-5 0,-1e-5 0,0 0,0 0,0 0,0 0,0 0,0 0,0 0,0 0,0 0,0 0,0 0,0 0,0 0,0 0,0 0.02725,-0.0997 0.06214,-0.18446 0.104614,-0.2542 0.0495,-0.0764 0.106635,-0.13321 0.171603,-0.17065 0.06488,-0.0407 0.133116,-0.062 0.205101,-0.064 0.08696,-0.002 0.157296,0.0283 0.211401,0.0922 0.05391,0.0606 0.0844,0.15982 0.09083,0.29768 0.0242,0.51879 0.04853,1.03757 0.073,1.55634 -0.09919,0.004 -0.19837,0.008 -0.297545,0.0112 8.67e-4,0.023 0.0017,0.046 0.0026,0.069 0.402402,-0.0126 0.804914,-0.0329 1.20756,-0.0605 -0.0017,-0.0229 -0.0034,-0.0458 -0.0052,-0.0687 -0.107251,0.007 -0.214491,0.0144 -0.321721,0.0208 -0.03018,-0.4621 -0.06025,-0.92421 -0.09023,-1.38633 -0.01402,-0.21626 -0.08168,-0.38346 -0.200495,-0.50231 -0.115953,-0.11916 -0.271749,-0.17429 -0.468948,-0.16758 -0.134522,0.004 -0.245558,0.0286 -0.333921,0.0734 -0.08534,0.0447 -0.155807,0.0968 -0.211399,0.15683 -0.05567,0.0568 -0.09809,0.11484 -0.127078,0.17437 -0.0046,0.01 -0.009,0.0195 -0.01316,0.0286 0,0 0,0 0,0 -0.01906,0.0426 -0.0333,0.076 -0.04271,0.10058 -0.003,5e-5 -0.006,9e-5 -0.009,1.3e-4 -0.01143,-0.63871 -0.02263,-1.27743 -0.0336,-1.91615 -0.259974,0.003 -0.519158,0.003 -0.777302,-0.001 -3.75e-4,0.023 -7.5e-4,0.0461 -0.0011,0.0691 0.0909,0.001 0.181929,0.002 0.273072,0.003 -0.005,1.14144 -0.0093,2.28288 -0.01277,3.42431 -0.104608,-9.1e-4 -0.209171,-0.002 -0.313678,-0.004 z"
           style="font-style:normal;font-variant:normal;font-weight:bold;font-stretch:normal;font-size:4.93888903px;font-family:Didot;-inkscape-font-specification:'Didot, Bold';font-variant-ligatures:normal;font-variant-caps:normal;font-variant-numeric:normal;font-feature-settings:normal;text-align:start;writing-mode:lr-tb;text-anchor:start;fill:#483745;stroke-width:0.26053226"
           id="path4580" />
        <path
           d="m 27.999642,237.82607 c 0.02592,0.21503 0.05186,0.43006 0.07781,0.64509 0.0114,0.0945 0.01173,0.17701 8.35e-4,0.24762 -0.01129,0.0673 -0.03041,0.12396 -0.05739,0.16989 -0.02736,0.0427 -0.06078,0.0761 -0.100196,0.10011 -0.03621,0.0237 -0.07521,0.0378 -0.116897,0.0422 -0.07376,0.008 -0.133284,-0.003 -0.178387,-0.0312 -0.04546,-0.0317 -0.08187,-0.071 -0.109294,-0.1178 -0.02423,-0.0471 -0.04217,-0.0964 -0.0539,-0.14808 -0.0085,-0.0519 -0.01483,-0.0975 -0.01887,-0.13665 -0.01005,-0.0979 -0.004,-0.17929 0.01781,-0.24403 0.02499,-0.0651 0.0587,-0.12118 0.101102,-0.16829 0.04241,-0.0471 0.09179,-0.0868 0.148192,-0.11916 0.05605,-0.0356 0.111957,-0.0713 0.167735,-0.10723 0.04095,-0.0276 0.06822,-0.0505 0.08183,-0.0686 0.01634,-0.0217 0.02643,-0.0426 0.0303,-0.0628 0.0031,-3.5e-4 0.0062,-6.9e-4 0.0093,-0.001 z m 1.108233,1.01068 c 1.5e-5,1e-5 -0.04968,-0.0378 -0.04967,-0.0378 -0.02139,0.0328 -0.04537,0.0592 -0.07193,0.0794 -0.02334,0.0198 -0.05591,0.0325 -0.09765,0.038 -0.07065,0.009 -0.118747,-0.008 -0.144208,-0.0505 -0.02272,-0.0467 -0.03824,-0.10097 -0.04667,-0.16275 -0.05501,-0.40328 -0.109971,-0.80657 -0.164872,-1.20986 -0.01859,-0.13657 -0.05702,-0.24581 -0.11471,-0.32772 -0.05509,-0.0856 -0.124055,-0.14963 -0.206807,-0.19234 -0.07973,-0.0431 -0.172178,-0.0683 -0.277517,-0.0759 -0.102324,-0.008 -0.210753,-0.006 -0.325543,0.006 -0.09968,0.0106 -0.194993,0.0317 -0.286222,0.0637 -0.08821,0.0316 -0.16631,0.0734 -0.234502,0.12566 -0.0685,0.0489 -0.122409,0.10952 -0.161731,0.182 -0.03658,0.0689 -0.05128,0.14587 -0.04372,0.23086 0.0049,0.0556 0.01652,0.0991 0.0348,0.13049 0.02136,0.0312 0.04525,0.0556 0.07166,0.073 0.02612,0.0142 0.05491,0.0233 0.08635,0.0272 0.03423,5.1e-4 0.06674,-9e-4 0.09753,-0.004 0.02137,-0.002 0.04801,-0.004 0.07864,-0.007 0.03361,-0.006 0.06364,-0.0173 0.09004,-0.0332 0.0295,-0.016 0.05367,-0.0381 0.0725,-0.0663 0.01849,-0.0315 0.02511,-0.0717 0.01995,-0.12066 -0.001,-0.01 -0.0045,-0.0276 -0.01028,-0.0534 -0.0058,-0.0258 -0.01177,-0.0533 -0.01792,-0.0823 -0.0061,-0.0291 -0.0119,-0.0549 -0.01737,-0.0774 -0.0058,-0.0258 -0.0092,-0.0436 -0.01021,-0.0534 -0.0095,-0.0914 0.0098,-0.15592 0.05779,-0.19368 0.04766,-0.041 0.106161,-0.0652 0.175773,-0.0725 0.10893,-0.0115 0.187306,0.016 0.235339,0.0833 0.04801,0.0672 0.0775,0.14478 0.08809,0.23276 0.01197,0.0994 0.02394,0.19874 0.03592,0.29811 0.0075,0.0619 0.0043,0.11343 -0.0097,0.15468 -0.01081,0.0409 -0.03602,0.08 -0.07571,0.11745 -0.04005,0.0342 -0.0989,0.0703 -0.176559,0.10821 -0.07452,0.0341 -0.174564,0.0777 -0.298035,0.12903 -0.0753,0.0337 -0.149027,0.0685 -0.221204,0.10469 -0.06937,0.0326 -0.131692,0.0742 -0.18709,0.12496 -0.05256,0.0472 -0.0949,0.10499 -0.12702,0.1734 -0.02925,0.0649 -0.04,0.14477 -0.03195,0.23959 0.0078,0.0916 0.03506,0.16846 0.08224,0.23054 0.04688,0.0588 0.105635,0.10334 0.17626,0.13358 0.07061,0.0302 0.146956,0.0498 0.228896,0.0588 0.08193,0.009 0.161575,0.01 0.23876,0.002 0.170433,-0.0166 0.298323,-0.0534 0.38287,-0.10897 0.08466,-0.0555 0.144698,-0.1514 0.179921,-0.28755 0.0032,-3.7e-4 0.0064,-7.4e-4 0.0096,-0.001 0.0318,0.10206 0.08971,0.17798 0.174128,0.22747 0.08755,0.049 0.213724,0.0637 0.377848,0.0427 0.07401,-0.009 0.151984,-0.0263 0.233781,-0.0506 0.08503,-0.0247 0.145098,-0.0744 0.180019,-0.14884 0,0 6.3e-5,2.3e-4 6.3e-5,2.3e-4 z"
           style="font-style:normal;font-variant:normal;font-weight:bold;font-stretch:normal;font-size:4.93888903px;font-family:Didot;-inkscape-font-specification:'Didot, Bold';font-variant-ligatures:normal;font-variant-caps:normal;font-variant-numeric:normal;font-feature-settings:normal;text-align:start;writing-mode:lr-tb;text-anchor:start;fill:#483745;stroke-width:0.26053226"
           id="path4582" />
        <path
           d="m 29.34775,238.81265 c 0.0035,0.0228 0.0069,0.0455 0.01035,0.0682 0.403444,-0.0583 0.807084,-0.1225 1.210942,-0.19217 -0.0041,-0.0227 -0.0082,-0.0453 -0.01229,-0.068 -0.101228,0.0174 -0.202438,0.0344 -0.303633,0.0511 -0.06018,-0.34647 -0.120318,-0.69295 -0.18043,-1.03943 -0.02584,-0.14891 -0.03266,-0.28111 -0.02081,-0.39637 0.01185,-0.11528 0.0359,-0.21438 0.07209,-0.29726 0.03929,-0.0834 0.08949,-0.14882 0.150755,-0.19629 0.06068,-0.0507 0.127821,-0.0827 0.201701,-0.096 0.08925,-0.0161 0.166196,0.003 0.231091,0.058 0.06424,0.0516 0.109716,0.14523 0.135981,0.28087 1.8e-5,1e-4 0.296657,1.53085 0.296675,1.53095 -0.09968,0.0184 -0.199345,0.0364 -0.298994,0.0542 0,0 0.0127,0.0678 0.0127,0.0678 0.403959,-0.0722 0.808141,-0.14967 1.212568,-0.23192 -0.0048,-0.0225 -0.0096,-0.0451 -0.01441,-0.0676 -0.107833,0.0218 -0.215646,0.0433 -0.323439,0.0645 1.6e-5,8e-5 -0.281518,-1.36403 -0.281502,-1.36396 -0.04387,-0.21281 -0.136252,-0.36896 -0.275446,-0.46912 -0.136191,-0.10086 -0.305148,-0.13174 -0.507882,-0.0941 -0.13825,0.0257 -0.24931,0.0674 -0.333741,0.12576 -0.08133,0.0579 -0.146051,0.12086 -0.194163,0.18915 -0.04868,0.0651 -0.08343,0.1293 -0.104117,0.1928 -0.01818,0.0598 -0.03096,0.10513 -0.03829,0.13641 0,0 -0.0093,0.002 -0.0093,0.002 -0.108948,-0.6282 -0.217792,-1.25641 -0.326534,-1.88464 -0.278021,0.0471 -0.555035,0.0911 -0.831052,0.13175 0,0 0.01029,0.0681 0.01029,0.0681 0.0971,-0.0142 0.194317,-0.0287 0.291659,-0.0437 0.178669,1.12397 0.357684,2.24791 0.537043,3.3718 -0.105946,0.0163 -0.211878,0.0321 -0.317795,0.0476 z"
           style="font-style:normal;font-variant:normal;font-weight:bold;font-stretch:normal;font-size:4.93888903px;font-family:Didot;-inkscape-font-specification:'Didot, Bold';font-variant-ligatures:normal;font-variant-caps:normal;font-variant-numeric:normal;font-feature-settings:normal;text-align:start;writing-mode:lr-tb;text-anchor:start;fill:#483745;stroke-width:0.26053226"
           id="path4584" />
        <path
           d="m 33.509943,236.74941 c -0.252945,0.0592 -0.505537,0.1168 -0.757782,0.17263 -0.0162,-0.0842 -0.03156,-0.17205 -0.0461,-0.26342 -0.01217,-0.0953 -0.01311,-0.18462 -0.0029,-0.26801 0.0094,-0.0866 0.03616,-0.16191 0.08013,-0.22597 0.0471,-0.0648 0.123434,-0.10918 0.229309,-0.13359 0.07474,-0.0172 0.136638,-0.013 0.185776,0.0128 0.05224,0.0251 0.09405,0.061 0.125373,0.10794 0.03131,0.0469 0.05486,0.0956 0.07057,0.1462 0.01572,0.0506 0.02789,0.0935 0.0365,0.12877 0.02638,0.10754 0.05277,0.21507 0.07915,0.32261 z m -0.742069,0.24055 c 0.465559,-0.10344 0.932247,-0.21288 1.400097,-0.32744 -0.0418,-0.16323 -0.105996,-0.2955 -0.192036,-0.39692 -0.08687,-0.10465 -0.183433,-0.18318 -0.289624,-0.23574 -0.106201,-0.0526 -0.218155,-0.0835 -0.335988,-0.093 -0.117838,-0.009 -0.231049,-0.002 -0.339929,0.0234 -0.15242,0.0352 -0.287642,0.0997 -0.406431,0.19384 -0.116408,0.0902 -0.212798,0.19746 -0.28941,0.32199 -0.0742,0.12063 -0.125067,0.25284 -0.152412,0.39674 -0.02734,0.1439 -0.02618,0.28507 0.0041,0.42349 0.03805,0.17384 0.102255,0.32365 0.193421,0.44927 0.09044,0.12238 0.199432,0.22056 0.327214,0.29425 0.130249,0.0698 0.274056,0.11443 0.431214,0.13366 0.156402,0.016 0.318904,0.005 0.486966,-0.0337 0.142206,-0.0326 0.258392,-0.0817 0.348197,-0.14693 0.09061,-0.062 0.162505,-0.13004 0.215672,-0.20391 0.05236,-0.0771 0.08923,-0.15395 0.11071,-0.2305 0.02065,-0.0798 0.03117,-0.15203 0.03164,-0.21674 -0.02448,-0.003 -0.04896,-0.005 -0.07342,-0.008 0.0041,0.0296 -4.65e-4,0.0783 -0.01392,0.14612 -0.01023,0.0671 -0.03618,0.13959 -0.078,0.21749 -0.03939,0.074 -0.09826,0.14572 -0.176668,0.21511 -0.07517,0.0686 -0.1775,0.11802 -0.306658,0.1478 -0.145299,0.0335 -0.265634,0.0286 -0.360611,-0.0143 -0.09501,-0.0429 -0.174163,-0.10637 -0.237589,-0.19023 -0.06418,-0.0871 -0.114331,-0.18747 -0.150706,-0.30104 -0.03711,-0.11676 -0.06901,-0.233 -0.09578,-0.34868 -0.01669,-0.0721 -0.03338,-0.14424 -0.05007,-0.21636 z"
           style="font-style:normal;font-variant:normal;font-weight:bold;font-stretch:normal;font-size:4.93888903px;font-family:Didot;-inkscape-font-specification:'Didot, Bold';font-variant-ligatures:normal;font-variant-caps:normal;font-variant-numeric:normal;font-feature-settings:normal;text-align:start;writing-mode:lr-tb;text-anchor:start;fill:#483745;stroke-width:0.26053226"
           id="path4586" />
        <path
           d="m 35.892556,236.15042 c -0.255199,0.068 -0.510031,0.13483 -0.764499,0.20032 -0.01929,-0.0838 -0.03784,-0.17127 -0.05567,-0.26231 -0.01555,-0.095 -0.01946,-0.18457 -0.01182,-0.26853 0.0068,-0.0872 0.03158,-0.16364 0.07438,-0.22947 0.04596,-0.0667 0.122421,-0.11402 0.229652,-0.14226 0.0757,-0.0199 0.13896,-0.0179 0.189825,0.006 0.05403,0.0234 0.09771,0.058 0.130988,0.10387 0.03329,0.0459 0.0587,0.0939 0.0762,0.1441 0.01747,0.0501 0.03115,0.0927 0.04105,0.12778 0.02997,0.10674 0.05993,0.21347 0.0899,0.3202 z m -0.746377,0.26733 c 0.469579,-0.12093 0.94035,-0.24638 1.412343,-0.37545 -0.04687,-0.16224 -0.115649,-0.29277 -0.205933,-0.3917 -0.09121,-0.10211 -0.191676,-0.17773 -0.301332,-0.22695 -0.10966,-0.0492 -0.224674,-0.0765 -0.345115,-0.082 -0.120443,-0.005 -0.235713,0.006 -0.346024,0.0354 -0.154429,0.0407 -0.290387,0.11036 -0.408472,0.2092 -0.115798,0.0948 -0.210465,0.206 -0.284209,0.33387 -0.07144,0.12383 -0.118535,0.25839 -0.141171,0.40373 -0.02264,0.14534 -0.01626,0.28681 0.0196,0.42435 0.04504,0.17272 0.115744,0.32032 0.212746,0.44266 0.09615,0.11912 0.2101,0.21331 0.342033,0.28233 0.134295,0.065 0.281269,0.10445 0.440777,0.11809 0.158626,0.0104 0.322406,-0.006 0.490951,-0.0507 0.142609,-0.0375 0.258416,-0.0905 0.347149,-0.15873 0.08965,-0.065 0.160265,-0.13544 0.211837,-0.2111 0.05067,-0.0788 0.08574,-0.15695 0.105278,-0.23429 0.01862,-0.0805 0.02723,-0.15324 0.0259,-0.21807 -0.02486,-0.002 -0.04971,-0.004 -0.07456,-0.005 0.005,0.0295 0.0018,0.0785 -0.0099,0.14679 -0.0084,0.0674 -0.03262,0.14089 -0.07261,0.22029 -0.03768,0.0753 -0.09505,0.14902 -0.172177,0.22107 -0.07388,0.0712 -0.175732,0.12397 -0.305289,0.15815 -0.145755,0.0384 -0.267498,0.0377 -0.36496,-0.002 -0.09747,-0.0396 -0.179697,-0.10038 -0.246762,-0.18219 -0.06793,-0.085 -0.12216,-0.18374 -0.162899,-0.29621 -0.0416,-0.11566 -0.07791,-0.23098 -0.108994,-0.34593 -0.0194,-0.0717 -0.03879,-0.14342 -0.05819,-0.21513 z"
           style="font-style:normal;font-variant:normal;font-weight:bold;font-stretch:normal;font-size:4.93888903px;font-family:Didot;-inkscape-font-specification:'Didot, Bold';font-variant-ligatures:normal;font-variant-caps:normal;font-variant-numeric:normal;font-feature-settings:normal;text-align:start;writing-mode:lr-tb;text-anchor:start;fill:#483745;stroke-width:0.26053226"
           id="path4588" />
        <path
           d="m 37.259817,237.07091 c 0.0065,0.0223 0.01302,0.0445 0.01953,0.0668 0.407227,-0.11216 0.814798,-0.22677 1.222731,-0.34329 -0.0067,-0.0222 -0.01349,-0.0443 -0.02024,-0.0665 -0.102335,0.0292 -0.204646,0.0583 -0.306931,0.0873 -0.102353,-0.33936 -0.2047,-0.67873 -0.307042,-1.01809 -0.04399,-0.14589 -0.06616,-0.27734 -0.06663,-0.39425 -4.65e-4,-0.11692 0.01388,-0.21913 0.04304,-0.30663 0.03236,-0.0884 0.07842,-0.16008 0.138257,-0.21507 0.05888,-0.0581 0.126721,-0.0982 0.203636,-0.12028 0.09294,-0.0267 0.17644,-0.0163 0.250549,0.0313 0.07312,0.0444 0.130305,0.13302 0.171378,0.26594 0.154534,0.50003 0.309077,1.00006 0.463629,1.50008 -0.100805,0.0292 -0.201585,0.0583 -0.302342,0.0873 0.0068,0.0222 0.01361,0.0444 0.02041,0.0666 0.408105,-0.11739 0.816575,-0.23656 1.225428,-0.35698 -0.007,-0.0221 -0.01393,-0.0442 -0.02089,-0.0663 -0.109098,0.0321 -0.218166,0.0642 -0.327205,0.0961 -0.139581,-0.44559 -0.279156,-0.89118 -0.418725,-1.33677 -0.06533,-0.20858 -0.17655,-0.35545 -0.33309,-0.44096 -0.153343,-0.0865 -0.335788,-0.099 -0.547353,-0.038 -0.144249,0.0416 -0.257468,0.0982 -0.339945,0.17005 -0.08346,0.0686 -0.146909,0.14011 -0.190404,0.21452 -0.04349,0.0744 -0.07217,0.14624 -0.08601,0.21556 -0.01479,0.0662 -0.02431,0.11534 -0.02853,0.14753 -0.0032,9e-4 -0.0064,0.002 -0.0096,0.003 -0.0478,-0.15859 -0.0956,-0.31718 -0.143401,-0.47577 -0.296867,0.0842 -0.593021,0.16732 -0.88847,0.24905 0.0065,0.0222 0.013,0.0445 0.0195,0.0667 0.104925,-0.029 0.209937,-0.0581 0.315037,-0.0874 0.188315,0.63687 0.376651,1.27373 0.565007,1.91059 -0.107124,0.0295 -0.214221,0.0589 -0.321291,0.0881 z"
           style="font-style:normal;font-variant:normal;font-weight:bold;font-stretch:normal;font-size:4.93888903px;font-family:Didot;-inkscape-font-specification:'Didot, Bold';font-variant-ligatures:normal;font-variant-caps:normal;font-variant-numeric:normal;font-feature-settings:normal;text-align:start;writing-mode:lr-tb;text-anchor:start;fill:#483745;stroke-width:0.26053226"
           id="path4590" />
        <path
           d="m 41.267927,234.70117 c 0.06676,0.20767 0.133514,0.41533 0.200271,0.623 0.02933,0.0913 0.04483,0.17282 0.04648,0.24474 6.37e-4,0.0688 -0.0088,0.12848 -0.02831,0.17914 -0.02053,0.0475 -0.04898,0.087 -0.08537,0.11858 -0.03312,0.0306 -0.07091,0.0522 -0.113363,0.0648 -0.07509,0.0224 -0.138877,0.0241 -0.191366,0.005 -0.05351,-0.0221 -0.09922,-0.0533 -0.137136,-0.0938 -0.03467,-0.0415 -0.06331,-0.0864 -0.08591,-0.13491 -0.01935,-0.0494 -0.03507,-0.0931 -0.04718,-0.1309 -0.03017,-0.0945 -0.04016,-0.17609 -0.02998,-0.24464 0.01344,-0.0695 0.03802,-0.132 0.07376,-0.18741 0.03573,-0.0554 0.08049,-0.10492 0.134303,-0.14844 0.0015,-0.001 0.156922,-0.13883 0.158388,-0.14012 0.03855,-0.0356 0.06345,-0.0636 0.07468,-0.0842 0.01348,-0.0247 0.02045,-0.0475 0.0209,-0.0683 0.0033,-9.7e-4 0.0065,-0.002 0.0098,-0.003 z m 1.340231,0.79673 c -0.01923,-0.01 -0.03845,-0.0193 -0.05768,-0.0289 -0.01686,0.0363 -0.03739,0.0667 -0.06159,0.0914 -0.02094,0.0237 -0.05256,0.042 -0.09483,0.0549 -0.07156,0.0219 -0.124182,0.0138 -0.157885,-0.0242 -0.03149,-0.0422 -0.05685,-0.0931 -0.07612,-0.15281 -0.125818,-0.38964 -0.251634,-0.77927 -0.377449,-1.1689 -0.02048,-0.0634 -0.0448,-0.1197 -0.07296,-0.1688 0,0 0,0 0,0 0,0 0,0 0,0 -0.03055,-0.0532 -0.06566,-0.098 -0.105306,-0.13457 -0.07408,-0.0745 -0.159994,-0.12483 -0.257689,-0.15106 -0.09443,-0.0272 -0.200023,-0.0339 -0.316718,-0.0201 -0.113441,0.0128 -0.231863,0.0374 -0.35525,0.0738 -0.107156,0.0316 -0.207442,0.0732 -0.300907,0.12484 -0.09021,0.0507 -0.167126,0.10953 -0.230803,0.17653 -0.06468,0.0638 -0.110767,0.13601 -0.138303,0.21653 -0.02531,0.0764 -0.02497,0.15561 0.001,0.23765 0.01701,0.0537 0.03861,0.0939 0.06482,0.12062 0.02946,0.0258 0.06017,0.0444 0.09212,0.0557 0.03096,0.008 0.06367,0.0106 0.09811,0.007 0.03672,-0.007 0.07132,-0.0157 0.103788,-0.0253 -0.0037,0.001 0.08654,-0.0255 0.08279,-0.0244 0.03471,-0.0137 0.06468,-0.0312 0.0899,-0.0524 0.02846,-0.0222 0.05004,-0.0493 0.06474,-0.0812 0.01368,-0.0351 0.01297,-0.0763 -0.0021,-0.12351 -0.003,-0.009 -0.01018,-0.0263 -0.02149,-0.0505 -0.01132,-0.0242 -0.0231,-0.05 -0.03535,-0.0774 -0.01233,-0.0274 -0.02362,-0.0517 -0.03385,-0.0727 -0.01131,-0.0242 -0.01848,-0.0411 -0.02148,-0.0505 -0.02818,-0.0882 -0.01973,-0.15622 0.02535,-0.20398 0.04408,-0.0509 0.103436,-0.0874 0.178134,-0.10941 0.116916,-0.0345 0.207696,-0.0234 0.272222,0.0334 0.06453,0.0567 0.110468,0.12757 0.137775,0.21252 0.03085,0.096 0.0617,0.19194 0.09255,0.2879 0.01921,0.0598 0.02512,0.11143 0.01771,0.15501 -0.0041,0.0426 -0.02398,0.0864 -0.05948,0.13139 -0.03651,0.0418 -0.09256,0.0895 -0.168123,0.14297 -0.07327,0.0493 -0.170717,0.11269 -0.29195,0.18998 -0.07328,0.0493 -0.144416,0.0996 -0.213411,0.1511 -0.06676,0.0473 -0.123996,0.10215 -0.171747,0.16453 -0.04549,0.0583 -0.07776,0.12471 -0.0968,0.19931 -0.01679,0.0705 -0.01072,0.15152 0.01822,0.24302 0.02795,0.0884 0.07306,0.15788 0.135395,0.20849 0.06134,0.0475 0.131752,0.0784 0.21124,0.0928 0.07949,0.0144 0.162533,0.0174 0.249133,0.009 0.0866,-0.008 0.169081,-0.0243 0.247428,-0.0476 0.173011,-0.0515 0.298245,-0.113 0.375533,-0.18435 0.0773,-0.0714 0.121855,-0.17779 0.133643,-0.3192 0.0033,-9.7e-4 0.0065,-0.002 0.0098,-0.003 0.05197,0.0948 0.12625,0.15886 0.222902,0.19203 0.09993,0.0322 0.233242,0.0233 0.400024,-0.0266 0.01007,-0.003 0.0202,-0.006 0.03037,-0.009 0.06544,-0.0216 0.133031,-0.049 0.20277,-0.0823 0.08378,-0.0394 0.137778,-0.0992 0.161949,-0.17909 -5.6e-5,-1.2e-4 -1.12e-4,-2.5e-4 -1.68e-4,-3.7e-4 z"
           style="font-style:normal;font-variant:normal;font-weight:bold;font-stretch:normal;font-size:4.93888903px;font-family:Didot;-inkscape-font-specification:'Didot, Bold';font-variant-ligatures:normal;font-variant-caps:normal;font-variant-numeric:normal;font-feature-settings:normal;text-align:start;writing-mode:lr-tb;text-anchor:start;fill:#483745;stroke-width:0.26053226"
           id="path4592" />
        <path
           d="m 44.514069,233.15808 c -0.08097,-0.24837 -0.14379,-0.47986 -0.188439,-0.69444 -0.04465,-0.21458 -0.05543,-0.40848 -0.03226,-0.58166 0.02317,-0.17318 0.09058,-0.32195 0.202472,-0.44627 0.110862,-0.12746 0.282012,-0.22672 0.513955,-0.29768 0.248553,-0.076 0.45792,-0.0897 0.627227,-0.0409 0.171641,0.0446 0.317423,0.13344 0.437148,0.2665 0.11872,0.12992 0.217122,0.2936 0.295303,0.49108 0.08049,0.19332 0.156162,0.40016 0.227079,0.62056 0.07901,0.24557 0.142485,0.47687 0.190472,0.69382 0.05029,0.2128 0.06547,0.40687 0.04569,0.58217 -0.0208,0.17216 -0.08636,0.32335 -0.19654,0.45362 -0.111202,0.12713 -0.288756,0.22785 -0.532477,0.30232 -0.184442,0.0563 -0.352164,0.08 -0.503367,0.071 -0.147894,-0.01 -0.285,-0.0648 -0.411393,-0.16435 -0.124123,-0.1037 -0.240718,-0.2564 -0.349808,-0.45809 -0.110108,-0.20483 -0.218469,-0.47074 -0.325064,-0.79771 3e-6,1e-5 5e-6,2e-5 8e-6,3e-5 z m 3.487031,1.87787 c -0.007,-0.022 -0.01409,-0.0441 -0.02113,-0.0661 -0.08583,0.0258 -0.156624,0.0419 -0.212443,0.0484 -0.05153,0.009 -0.09895,0.007 -0.142296,-0.004 -0.04006,-0.0121 -0.07936,-0.0331 -0.117897,-0.0629 -0.03421,-0.0276 -0.07693,-0.0648 -0.128173,-0.11154 -0.09713,-0.0881 -0.200284,-0.15534 -0.30944,-0.20174 -0.105846,-0.0474 -0.243843,-0.0539 -0.4138,-0.0195 -0.105287,0.0217 -0.192342,0.0378 -0.261319,0.0485 -0.06896,0.0106 -0.130675,0.0156 -0.185169,0.015 -0.05018,0.001 -0.09531,-0.004 -0.135383,-0.0157 -0.03678,-0.013 -0.07725,-0.0317 -0.121418,-0.0563 0.05243,-0.006 0.109921,-0.0181 0.172498,-0.0372 0.246988,-0.0755 0.466304,-0.1924 0.658121,-0.35085 0.1941,-0.1626 0.34995,-0.34964 0.467497,-0.56121 0.120859,-0.21255 0.197696,-0.43931 0.230215,-0.6803 0.03485,-0.24516 0.01493,-0.4859 -0.06032,-0.72224 -0.08629,-0.27104 -0.218679,-0.49713 -0.397585,-0.67832 -0.17654,-0.18533 -0.377813,-0.32688 -0.60362,-0.42464 -0.222439,-0.0988 -0.460419,-0.15465 -0.713444,-0.16767 -0.24968,-0.014 -0.488988,0.014 -0.717659,0.084 -0.212115,0.0649 -0.41481,0.17377 -0.607977,0.32657 -0.19418,0.14966 -0.354533,0.32882 -0.481408,0.53746 -0.126864,0.20862 -0.212005,0.43905 -0.255741,0.69122 -0.04046,0.25113 -0.0171,0.51036 0.06996,0.77749 0.07068,0.21687 0.178629,0.41019 0.323943,0.57989 0.145322,0.16971 0.312991,0.30834 0.503116,0.4159 0.193404,0.10655 0.400036,0.18139 0.619977,0.22453 0.223229,0.0421 0.446318,0.0446 0.669365,0.007 0.05709,0.031 0.122191,0.0698 0.19528,0.11663 0.07412,0.0499 0.14596,0.10406 0.215527,0.16234 0.112239,0.10058 0.216284,0.17601 0.312152,0.22629 0.09587,0.0503 0.204726,0.0793 0.326607,0.0872 0.125191,0.007 0.274778,-0.006 0.448933,-0.0377 0.177648,-0.033 0.401498,-0.0835 0.673031,-0.15126 10e-7,1e-5 2e-6,1e-5 3e-6,2e-5 z"
           style="font-style:normal;font-variant:normal;font-weight:bold;font-stretch:normal;font-size:4.93888903px;font-family:Didot;-inkscape-font-specification:'Didot, Bold';font-variant-ligatures:normal;font-variant-caps:normal;font-variant-numeric:normal;font-feature-settings:normal;text-align:start;writing-mode:lr-tb;text-anchor:start;fill:#483745;stroke-width:0.26053226"
           id="path4594" />
        <path
           d="m 47.666514,231.81333 c 0.007,0.0221 0.01391,0.0441 0.02087,0.0662 0.112388,-0.0332 0.224904,-0.0664 0.337549,-0.0995 0.142914,0.45587 0.285834,0.91174 0.428759,1.3676 0.07221,0.23029 0.18537,0.37619 0.339184,0.43785 0.152905,0.0585 0.345782,0.0537 0.579382,-0.014 0.07342,-0.0213 0.145611,-0.0525 0.216622,-0.0936 0.07199,-0.0379 0.136115,-0.0839 0.192393,-0.13787 0.05866,-0.0581 0.107118,-0.12005 0.145346,-0.18594 0.03727,-0.069 0.05881,-0.14213 0.06454,-0.21935 0.0034,-9.6e-4 0.0067,-0.002 0.0101,-0.003 0.03887,0.12805 0.07774,0.25609 0.116615,0.38414 0.311433,-0.0888 0.623523,-0.17667 0.936301,-0.26348 -0.0066,-0.0222 -0.0131,-0.0443 -0.01965,-0.0665 -0.111064,0.0308 -0.22204,0.0617 -0.332929,0.0927 -0.196101,-0.65672 -0.392184,-1.31345 -0.588249,-1.97017 -0.320843,0.0896 -0.640583,0.18024 -0.959254,0.27163 0.0068,0.0221 0.01353,0.0442 0.0203,0.0663 0.11184,-0.032 0.223809,-0.064 0.33591,-0.0958 0.123833,0.40785 0.247672,0.81569 0.371518,1.22353 0.02592,0.0854 0.03741,0.1714 0.03455,0.25809 4.99e-4,0.0857 -0.0136,0.16533 -0.04225,0.23879 -0.02626,0.0693 -0.06589,0.13051 -0.118857,0.18352 -0.05297,0.053 -0.117883,0.0906 -0.194792,0.11275 -0.127043,0.0366 -0.228212,0.0212 -0.303747,-0.0463 -0.0765,-0.0707 -0.133388,-0.16604 -0.170555,-0.28602 -0.155034,-0.50045 -0.31006,-1.0009 -0.465079,-1.50135 -0.319243,0.0926 -0.637424,0.18585 -0.954578,0.27964 z"
           style="font-style:normal;font-variant:normal;font-weight:bold;font-stretch:normal;font-size:4.93888903px;font-family:Didot;-inkscape-font-specification:'Didot, Bold';font-variant-ligatures:normal;font-variant-caps:normal;font-variant-numeric:normal;font-feature-settings:normal;text-align:start;writing-mode:lr-tb;text-anchor:start;fill:#483745;stroke-width:0.26053226"
           id="path4596" />
        <path
           d="m 50.851172,230.9059 c 0.0065,0.0222 0.01291,0.0444 0.01936,0.0665 0.111492,-0.0303 0.223117,-0.0605 0.334876,-0.0905 0.183064,0.63599 0.366156,1.27198 0.549278,1.90796 -0.109786,0.0296 -0.219483,0.0594 -0.329094,0.0893 0.0065,0.0222 0.01291,0.0443 0.01937,0.0665 0.448277,-0.12232 0.897984,-0.24229 1.349213,-0.35942 -0.0062,-0.0222 -0.01232,-0.0445 -0.01848,-0.0667 -0.134111,0.0348 -0.268085,0.0698 -0.401925,0.10511 -0.114439,-0.40653 -0.228865,-0.81307 -0.343279,-1.21962 -0.0286,-0.10164 -0.03864,-0.19621 -0.02998,-0.28375 0.01121,-0.0916 0.03125,-0.17189 0.06013,-0.24079 0.02887,-0.0689 0.06529,-0.12443 0.109235,-0.16647 0.04305,-0.0452 0.08196,-0.0723 0.116593,-0.0813 0.03118,-0.008 0.05546,-0.007 0.07283,0.002 0.01996,0.005 0.0356,0.0147 0.0469,0.0288 0.01042,0.011 0.01738,0.0228 0.02091,0.0354 0.007,0.0119 0.01046,0.0178 0.01046,0.0178 8.87e-4,0.003 0.0027,0.0164 0.0053,0.0395 0.0027,0.0232 0.0045,0.0499 0.0054,0.0803 2e-6,2e-5 0.01065,0.079 0.01065,0.079 0.0027,0.0232 0.0053,0.0395 0.0079,0.0491 0.02279,0.0827 0.07136,0.13146 0.145605,0.14646 0.0734,0.0118 0.149738,0.008 0.229137,-0.0126 0.110481,-0.0281 0.182676,-0.0752 0.21657,-0.14146 0.03734,-0.0672 0.0433,-0.14854 0.01767,-0.24406 -0.03417,-0.12738 -0.105821,-0.21478 -0.215244,-0.26204 -0.110239,-0.0504 -0.238618,-0.0571 -0.384596,-0.0198 -0.173779,0.0444 -0.301955,0.12531 -0.384403,0.24218 -0.07988,0.1128 -0.133733,0.23775 -0.161744,0.37472 -0.0035,9.1e-4 -0.0069,0.002 -0.01035,0.003 -0.03755,-0.1334 -0.0751,-0.2668 -0.112649,-0.4002 -0.319703,0.084 -0.638286,0.16931 -0.955778,0.25564 z"
           style="font-style:normal;font-variant:normal;font-weight:bold;font-stretch:normal;font-size:4.93888903px;font-family:Didot;-inkscape-font-specification:'Didot, Bold';font-variant-ligatures:normal;font-variant-caps:normal;font-variant-numeric:normal;font-feature-settings:normal;text-align:start;writing-mode:lr-tb;text-anchor:start;fill:#483745;stroke-width:0.26053226"
           id="path4598" />
        <path
           d="m 54.870183,230.72931 c -0.279554,0.0644 -0.558315,0.13015 -0.836303,0.19709 -0.01786,-0.0838 -0.03477,-0.17124 -0.0507,-0.26229 -0.01329,-0.0951 -0.01404,-0.18467 -0.0021,-0.26881 0.01109,-0.0873 0.0417,-0.16409 0.09194,-0.23018 0.05374,-0.0669 0.140519,-0.11451 0.260285,-0.14253 0.08454,-0.0198 0.154169,-0.0173 0.208697,0.007 0.05805,0.0237 0.103933,0.0588 0.137666,0.10512 0.03372,0.0463 0.0586,0.0946 0.07468,0.14502 0.01608,0.0503 0.02843,0.0931 0.03705,0.12835 0.02627,0.10699 0.05255,0.21399 0.07882,0.32098 z m -0.819202,0.26368 c 0.512228,-0.12291 1.027042,-0.24171 1.544565,-0.35572 -0.03846,-0.16347 -0.102846,-0.29587 -0.193654,-0.39717 -0.09154,-0.10448 -0.19567,-0.18247 -0.312336,-0.23387 -0.116653,-0.0514 -0.241253,-0.0806 -0.373542,-0.0874 -0.13229,-0.007 -0.260265,0.004 -0.383666,0.033 -0.172775,0.0404 -0.32662,0.11069 -0.461124,0.21069 -0.131826,0.0959 -0.2402,0.20869 -0.325166,0.33798 -0.08231,0.12526 -0.137265,0.261 -0.165125,0.4071 -0.02786,0.14609 -0.02334,0.28765 0.01306,0.42464 0.04572,0.17203 0.119549,0.31844 0.221015,0.4393 0.100637,0.11769 0.219976,0.21044 0.357951,0.27846 0.140582,0.064 0.294279,0.10294 0.461355,0.11708 0.166275,0.011 0.338273,-0.004 0.516538,-0.0461 0.150842,-0.0352 0.274402,-0.0857 0.37085,-0.15165 0.09723,-0.0628 0.175187,-0.13101 0.233828,-0.20494 0.05787,-0.0771 0.09967,-0.15391 0.125271,-0.23045 0.02484,-0.0797 0.03883,-0.15194 0.04184,-0.21667 -0.02621,-0.003 -0.05242,-0.005 -0.07864,-0.008 0.0033,0.0296 -0.0034,0.0783 -0.02012,0.14614 -0.01327,0.067 -0.04341,0.13954 -0.09023,0.21758 -0.04414,0.0741 -0.108631,0.14599 -0.193353,0.21595 -0.08127,0.0692 -0.190478,0.1196 -0.327787,0.15147 -0.154454,0.0359 -0.281967,0.0339 -0.383087,-0.006 -0.10109,-0.0403 -0.185818,-0.10138 -0.254158,-0.18328 -0.06914,-0.0851 -0.123722,-0.18378 -0.163558,-0.29619 -0.04066,-0.11561 -0.07578,-0.23085 -0.105286,-0.34575 -0.01848,-0.0719 -0.03696,-0.14391 -0.05544,-0.21587 z"
           style="font-style:normal;font-variant:normal;font-weight:bold;font-stretch:normal;font-size:4.93888903px;font-family:Didot;-inkscape-font-specification:'Didot, Bold';font-variant-ligatures:normal;font-variant-caps:normal;font-variant-numeric:normal;font-feature-settings:normal;text-align:start;writing-mode:lr-tb;text-anchor:start;fill:#483745;stroke-width:0.26053226"
           id="path4600" />
        <path
           d="m 56.129237,231.05644 c 0.05309,0.23267 0.106189,0.46534 0.159298,0.698 0.0242,-0.005 0.0484,-0.0104 0.0726,-0.0155 0.0045,-0.0279 0.01091,-0.0478 0.01912,-0.0596 0.01167,-0.0125 0.03135,-0.0218 0.05905,-0.0277 0.03117,-0.007 0.07593,-0.009 0.134233,-0.008 0.05832,0.001 0.122551,0.005 0.192639,0.0101 0.07287,0.002 0.147102,0.002 0.222715,-5.5e-4 0.07563,-0.002 0.144646,-0.009 0.207114,-0.0219 0.114531,-0.0231 0.222258,-0.0613 0.323416,-0.11468 0.101159,-0.0534 0.185991,-0.11673 0.254521,-0.19019 0.07136,-0.0774 0.123287,-0.16257 0.155643,-0.25572 0.03522,-0.0971 0.04244,-0.19882 0.02127,-0.30532 -0.03079,-0.15493 -0.105559,-0.27312 -0.225066,-0.35427 -0.119438,-0.0811 -0.281579,-0.13385 -0.486104,-0.15735 -0.160654,-0.017 -0.321406,-0.0336 -0.482242,-0.0496 -0.09495,-0.0109 -0.172156,-0.0253 -0.231728,-0.0433 -0.06026,-0.0212 -0.106011,-0.0436 -0.137255,-0.0674 -0.03194,-0.027 -0.05469,-0.0541 -0.06821,-0.0816 -0.01352,-0.0274 -0.02279,-0.0524 -0.02781,-0.0749 -0.02425,-0.10923 0.0056,-0.20123 0.09008,-0.27583 0.08733,-0.0786 0.190345,-0.12985 0.308725,-0.15371 0.111192,-0.0225 0.208034,-0.025 0.290221,-0.008 0.08151,0.014 0.153111,0.0436 0.214711,0.0885 0.06452,0.041 0.121955,0.0936 0.172306,0.15759 0.05394,0.0633 0.106617,0.13022 0.15805,0.20077 0.02322,-0.004 0.04645,-0.009 0.06969,-0.0133 -0.03969,-0.19675 -0.07938,-0.3935 -0.119055,-0.59025 -0.02526,0.005 -0.05052,0.01 -0.07577,0.0145 -0.004,0.0175 -0.01004,0.0337 -0.01821,0.0487 -0.0082,0.015 -0.03209,0.0263 -0.0717,0.0339 -0.02161,0.004 -0.05352,0.004 -0.09577,-0.002 -0.03864,-0.006 -0.0845,-0.0103 -0.137564,-0.0134 -0.05012,-0.007 -0.107119,-0.0107 -0.170963,-0.0115 -0.06025,-0.001 -0.124537,0.005 -0.192764,0.0185 -0.129299,0.026 -0.245287,0.0699 -0.347744,0.13139 -0.09959,0.0576 -0.181375,0.12677 -0.245383,0.20746 -0.06117,0.0768 -0.103501,0.16143 -0.127143,0.25398 -0.02365,0.0925 -0.02474,0.18533 -0.0036,0.27841 0.01973,0.0866 0.05279,0.15869 0.09904,0.21613 0.04553,0.0542 0.09621,0.099 0.152039,0.13427 0.05934,0.0345 0.120322,0.0604 0.182978,0.0775 0.06194,0.0139 0.119262,0.0239 0.172004,0.0298 0.152932,0.0187 0.30575,0.0379 0.458438,0.0576 0.101779,0.0131 0.182448,0.0307 0.241919,0.0525 0.06232,0.0178 0.110871,0.0402 0.14567,0.0669 0.03479,0.0267 0.05901,0.0555 0.0727,0.0864 0.01653,0.0269 0.02777,0.0549 0.03376,0.084 0.0193,0.0934 0.01501,0.1697 -0.01268,0.22874 -0.02488,0.0552 -0.06072,0.10076 -0.107539,0.13683 -0.04402,0.0322 -0.09172,0.0551 -0.143175,0.0688 -0.05143,0.0139 -0.09278,0.0237 -0.124176,0.0295 -0.12158,0.0245 -0.22808,0.0262 -0.319854,0.005 -0.09247,-0.0246 -0.17537,-0.0628 -0.248752,-0.11468 -0.07338,-0.0519 -0.142121,-0.11475 -0.206205,-0.18866 -0.0606,-0.0746 -0.122067,-0.15243 -0.184411,-0.23337 -0.02438,0.005 -0.04875,0.0108 -0.07312,0.0162 z"
           style="font-style:normal;font-variant:normal;font-weight:bold;font-stretch:normal;font-size:4.93888903px;font-family:Didot;-inkscape-font-specification:'Didot, Bold';font-variant-ligatures:normal;font-variant-caps:normal;font-variant-numeric:normal;font-feature-settings:normal;text-align:start;writing-mode:lr-tb;text-anchor:start;fill:#483745;stroke-width:0.26053226"
           id="path4602" />
        <path
           d="m 58.460442,231.25338 c 0.0043,0.0226 0.0086,0.0452 0.01294,0.0678 0.43931,-0.0792 0.880292,-0.15405 1.32302,-0.22408 -0.0038,-0.0227 -0.0076,-0.0454 -0.01133,-0.0681 -0.111235,0.0178 -0.222358,0.0358 -0.33337,0.0542 -0.0599,-0.34701 -0.119757,-0.69402 -0.179585,-1.04104 -0.02571,-0.14921 -0.03009,-0.28186 -0.01282,-0.3981 0.01729,-0.11623 0.04872,-0.21639 0.09438,-0.30047 0.0493,-0.0847 0.111273,-0.15129 0.185848,-0.19976 0.07403,-0.0518 0.155185,-0.0845 0.243227,-0.098 0.106394,-0.0164 0.196039,0.003 0.268506,0.0591 0.072,0.0525 0.118293,0.14707 0.139275,0.28382 0.07889,0.51425 0.157866,1.02848 0.236918,1.5427 -0.109898,0.0163 -0.219684,0.0329 -0.32936,0.0499 0.0036,0.0228 0.0073,0.0455 0.01095,0.0683 0.320202,-0.0489 0.641323,-0.0953 0.963392,-0.13891 0.12444,-0.0168 0.249035,-0.0331 0.373779,-0.0489 -0.003,-0.0229 -0.0061,-0.0457 -0.0091,-0.0686 -0.119938,0.0151 -0.239738,0.0306 -0.359394,0.0465 -0.06469,-0.46001 -0.129311,-0.92004 -0.193862,-1.38007 -0.01043,-0.0742 -0.02817,-0.14193 -0.05333,-0.20309 0,0 0,0 0,0 0,0 0,0 0,0 0,0 0,0 0,0 0,0 0,0 0,0 0,0 0,0 0,0 0,0 0,0 0,0 -0.04766,-0.11625 -0.121922,-0.20879 -0.223057,-0.27739 -0.150602,-0.10516 -0.348529,-0.14007 -0.59177,-0.10349 -0.165775,0.025 -0.300345,0.0675 -0.403482,0.12702 -0.09949,0.0589 -0.178954,0.12331 -0.2385,0.19293 -0.0601,0.0663 -0.103247,0.13175 -0.129623,0.1961 -0.02328,0.0605 -0.03963,0.10662 -0.0491,0.13813 -0.0036,5.9e-4 -0.0073,0.001 -0.0109,0.002 -0.108436,-0.62918 -0.216762,-1.25839 -0.324977,-1.88762 -0.352149,0.0585 -0.702635,0.11954 -1.051489,0.1829 0.0043,0.0226 0.0086,0.0452 0.0129,0.0678 0.122373,-0.022 0.244944,-0.0438 0.367715,-0.0652 0.206253,1.12134 0.412845,2.24261 0.619777,3.36382 -0.115975,0.0197 -0.231835,0.0397 -0.347582,0.0599 z"
           style="font-style:normal;font-variant:normal;font-weight:bold;font-stretch:normal;font-size:4.93888903px;font-family:Didot;-inkscape-font-specification:'Didot, Bold';font-variant-ligatures:normal;font-variant-caps:normal;font-variant-numeric:normal;font-feature-settings:normal;text-align:start;writing-mode:lr-tb;text-anchor:start;fill:#483745;stroke-width:0.26053226"
           id="path4604" />
        <path
           d="m 61.754683,227.61775 c 0.011,0.095 0.06084,0.17225 0.149037,0.23221 0.08823,0.06 0.187585,0.0841 0.298678,0.0727 0.111096,-0.0114 0.203387,-0.0553 0.277292,-0.13201 0.07389,-0.0767 0.106535,-0.16244 0.09722,-0.25758 -0.0093,-0.0951 -0.05805,-0.17336 -0.146705,-0.23436 -0.08863,-0.061 -0.189666,-0.0858 -0.302471,-0.0741 -0.112801,0.0116 -0.206143,0.0565 -0.279635,0.13412 -0.0735,0.0777 -0.104412,0.16413 -0.09342,0.25906 z m -0.198638,1.09291 c 0.0028,0.0229 0.0056,0.0458 0.0085,0.0687 0.125462,-0.0148 0.25112,-0.0292 0.376967,-0.0431 0.07543,0.65653 0.151041,1.31304 0.226826,1.96953 -0.120479,0.0132 -0.240831,0.0268 -0.36105,0.041 0.0028,0.0229 0.0057,0.0458 0.0085,0.0686 0.458619,-0.0541 0.919147,-0.10142 1.381276,-0.14142 -0.0021,-0.023 -0.0042,-0.0459 -0.0063,-0.0689 -0.121153,0.0104 -0.242194,0.0214 -0.363119,0.0328 -0.0681,-0.68055 -0.136009,-1.36112 -0.203718,-2.04171 -0.357439,0.0341 -0.713422,0.0723 -1.067825,0.11448 z"
           style="font-style:normal;font-variant:normal;font-weight:bold;font-stretch:normal;font-size:4.93888903px;font-family:Didot;-inkscape-font-specification:'Didot, Bold';font-variant-ligatures:normal;font-variant-caps:normal;font-variant-numeric:normal;font-feature-settings:normal;text-align:start;writing-mode:lr-tb;text-anchor:start;fill:#483745;stroke-width:0.26053226"
           id="path4606" />
      </g>
    </g>
  </g>
</svg>
